<svg xmlns="http://www.w3.org/2000/svg" width="20" height="20">
  <g fill="none" stroke="currentColor" stroke-width="1.5">
    <path
      stroke-linejoin="round"
      d="M2.256 16.632c.163.532.58.949 1.112 1.112a11.499 11.499 0 0011.514-2.862 11.498 11.498 0 002.862-11.514 1.677 1.677 0 00-1.112-1.112A11.498 11.498 0 005.118 5.118a11.498 11.498 0 00-2.862 11.514z"
    />
    <path
      stroke-linecap="round"
      d="M2 12l6 6m4-16l6 6M8 12l4-4m-1-1l2 2M9 9l2 2m-4 0l2 2"
    />
  </g>
</svg>
