<svg xmlns="http://www.w3.org/2000/svg" width="20" height="20">
  <g fill="none">
    <g clip-path="url(#a)">
      <path
        fill="currentcolor"
        stroke="currentcolor"
        d="M14 15l-.548-.511L14 15zM5 6.25l.544.516L5 6.25zm12.17-2.72l.127-.74-.127.74zm.49 1.154L17 4.328l.66.356zm-4.208 9.804c-.961 1.03-2.409 1.558-3.917 1.55-1.508-.01-2.994-.557-4.005-1.568l-1.06 1.06c1.332 1.332 3.216 1.996 5.056 2.007 1.841.011 3.722-.632 5.022-2.025l-1.096-1.024zM5.53 14.47c-2.038-2.038-2.003-5.575.014-7.704L4.455 5.734c-2.54 2.682-2.634 7.148.015 9.796l1.06-1.06zm.014-7.704c1.603-1.692 3.83-2.436 6.026-2.692 2.192-.254 4.271-.011 5.473.195l.254-1.478c-1.276-.22-3.511-.484-5.9-.207-2.385.277-5.005 1.106-6.942 3.15l1.09 1.032zM17 4.328c-1.004 1.862-1.136 3.76-1.405 5.395-.272 1.657-.688 3.206-2.143 4.765l1.096 1.024c1.748-1.873 2.234-3.762 2.528-5.545.296-1.805.394-3.35 1.244-4.927L17 4.328zm.043-.059s-.003 0-.008-.003a.074.074 0 01-.017-.01c-.009-.008-.01-.013-.008-.009a.077.077 0 01.004.033.116.116 0 01-.014.048l1.32.712c.438-.811.117-2.053-1.023-2.25l-.254 1.48z"
      />
      <path
        stroke="currentcolor"
        stroke-linecap="round"
        stroke-linejoin="round"
        stroke-width="1.5"
        d="M6.75 9.75v3.5h3.5m-.5-5.5v2.5h2.5"
      />
      <path
        stroke="currentcolor"
        stroke-linecap="round"
        stroke-width="1.5"
        d="M12.5 7.5L2.25 17.75"
      />
    </g>
    <defs>
      <clipPath id="a"><path fill="currentcolor" d="M0 0h20v20H0z" /></clipPath>
    </defs>
  </g>
</svg>
