<svg xmlns="http://www.w3.org/2000/svg" width="20" height="20">
  <path
    fill="currentcolor"
    stroke="none"
    d="M9.52 4.8V2.9c0-.34-.087-.657-.26-.95a1.806 1.806 0 00-.69-.69A1.801 1.801 0 007.62 1c-.34 0-.657.087-.95.26a1.983 1.983 0 00-.69.7c-.167.287-.25.6-.25.94 0 .347.083.667.25.96.173.287.403.517.69.69.293.167.61.25.95.25h1.9zm2.85 4.73a1.91 1.91 0 01-.96-.25 2.01 2.01 0 01-.69-.69 1.91 1.91 0 01-.25-.96V2.9c0-.34.083-.657.25-.95.173-.293.403-.523.69-.69.293-.173.613-.26.96-.26.34 0 .653.087.94.26.287.167.513.397.68.69.173.293.26.61.26.95v4.73c0 .347-.087.667-.26.96a1.837 1.837 0 01-1.62.94zM9.53 7.62c0 .347-.087.667-.26.96a1.902 1.902 0 01-.69.69c-.287.167-.603.25-.95.25H2.9c-.34 0-.657-.083-.95-.25a1.983 1.983 0 01-.7-.69A1.91 1.91 0 011 7.62c0-.34.087-.653.26-.94.173-.293.403-.523.69-.69.293-.173.61-.26.95-.26h4.73c.347 0 .663.087.95.26.293.167.523.397.69.69.173.287.26.6.26.94zm5.67 1.9h1.9c.34 0 .657-.083.95-.25.293-.173.523-.403.69-.69.173-.293.26-.613.26-.96 0-.34-.087-.653-.26-.94a1.879 1.879 0 00-.7-.69c-.287-.173-.6-.26-.94-.26-.347 0-.667.087-.96.26a1.902 1.902 0 00-.69.69c-.167.287-.25.6-.25.94v1.9zM2.9 14.25a1.89 1.89 0 01-.95-.25 1.983 1.983 0 01-.7-.69c-.167-.287-.25-.6-.25-.94a1.856 1.856 0 01.95-1.64c.293-.173.61-.26.95-.26h1.9v1.9c0 .34-.087.653-.26.94a1.902 1.902 0 01-.69.69c-.287.167-.603.25-.95.25zm4.72-3.78c.347 0 .663.087.95.26.293.167.523.397.69.69.173.287.26.603.26.95v4.73c0 .34-.087.657-.26.95a1.806 1.806 0 01-.69.69c-.287.173-.603.26-.95.26-.34 0-.657-.087-.95-.26a1.983 1.983 0 01-.69-.7c-.167-.287-.25-.6-.25-.94v-4.73c0-.347.083-.663.25-.95.173-.293.403-.523.69-.69.293-.173.61-.26.95-.26zm2.85 1.9c0-.347.083-.663.25-.95.173-.293.403-.523.69-.69.293-.173.613-.26.96-.26h4.73c.34 0 .657.087.95.26.293.167.523.397.69.69.173.287.26.603.26.95 0 .34-.087.653-.26.94a1.902 1.902 0 01-.69.69 1.89 1.89 0 01-.95.25h-4.73a1.91 1.91 0 01-.96-.25 2.01 2.01 0 01-.69-.69c-.167-.287-.25-.6-.25-.94zm0 2.83v1.9c0 .34.083.657.25.95.173.293.403.523.69.69.293.173.613.26.96.26.34 0 .653-.087.94-.26.287-.167.513-.397.68-.69.173-.293.26-.61.26-.95 0-.347-.087-.663-.26-.95a1.827 1.827 0 00-.68-.69c-.287-.173-.6-.26-.94-.26h-1.9z"
  />
</svg>
