<svg xmlns="http://www.w3.org/2000/svg" width="20" height="20">
  <path
    fill="none"
    stroke="currentcolor"
    stroke-width="1.5"
    d="M8.84 8.66L2.72 5.508a.95.95 0 01-.074-1.646l.603-.384a2 2 0 011.609-.24l7.36 2.045L14 3.5c1.137-1.137 2.113-1.304 2.743-1.237.525.056.938.47.994.994.067.63-.1 1.606-1.237 2.743l-1.783 1.783 2.045 7.36a2 2 0 01-.24 1.608l-.384.603a.95.95 0 01-1.646-.075L11.34 11.16l-.84.84-2.59 2.39a3.361 3.361 0 01-.328 2.878 1.009 1.009 0 01-1.8-.18l-.303-.811a3 3 0 00-1.756-1.756l-.81-.304a1.009 1.009 0 01-.181-1.8 3.36 3.36 0 012.877-.327L8 9.5l.84-.84z"
  />
</svg>
